<svg xmlns="http://www.w3.org/2000/svg" viewBox="0 0 300 300">

  <defs>
    <clipPath id="circleClip">
      <circle cx="150" cy="150" r="150"/>
    </clipPath>
  </defs>

  <!-- OUTER GROUP: CLIP ONLY -->
  <g clip-path="url(#circleClip)">

    <!-- BACKGROUND RECT -->
    <rect width="100%" height="100%" fill="#FFFFFF"/>

    <!-- CIRCLE STROKE BEHIND EVERYTHING -->
    <circle cx="150" cy="150" r="150" fill="none" stroke="#000000" stroke-width="40"/>

    <!-- INNER GROUP: SCALE + CENTER -->
    <g transform="translate(150 150) scale(1.4) translate(-150 -150) translate(0 20)">

      <!-- EARS, FACE, HAT, etc. -->
      <g transform="translate(0 -50)">

        <!-- LEFT EAR -->
        <g transform="translate(15 0)">
          <path d="M 47 115 A 28 28 0 0 0 103 115 L 75 115 Z" fill="#000000"/>
          <rect x="68" y="119" width="24" height="12" rx="12" fill="#FFFFFF"/>
        </g>

        <!-- RIGHT EAR -->
        <g transform="translate(-15 0)">
          <path d="M 197 115 A 28 28 0 0 0 253 115 L 225 115 Z" fill="#000000"/>
          <rect x="208" y="119" width="24" height="12" rx="12" fill="#FFFFFF"/>
        </g>

      </g>

      <!-- FACE -->
      <circle cx="150" cy="130" r="70" fill="#000000"/>

      <!-- TRIANGLE / HAT -->
      <g transform="translate(150 70) scale(0.5) translate(-150 -70)">
        <polygon points="150,10 105,100 195,100" fill="#000000"/>
      </g>

      <!-- EYES -->
      <path d="M 102 130 A 18 18 0 0 0 138 130 L 120 130 Z" fill="#FFFFFF"/>
      <path d="M 162 130 A 18 18 0 0 0 198 130 L 180 130 Z" fill="#FFFFFF"/>

      <!-- NOSE / MOUTH -->
      <circle cx="150" cy="170" r="32" fill="#FFFFFF" stroke="#000000" stroke-width="4" stroke-linecap="round" stroke-linejoin="round"/>
      <rect x="143" y="148" width="14" height="14" fill="#000000"/>
      <rect x="132" y="171" width="36" height="18" rx="18" fill="#000000"/>

      <!-- DETAILS -->
      <path d="M 152 105 L 144 142" stroke="#FFFFFF" stroke-width="3"/>
      <path d="M 162 108 L 154 147" stroke="#FFFFFF" stroke-width="3"/>
      <path d="M 172 112 L 164 150" stroke="#FFFFFF" stroke-width="3"/>

    </g>
  </g>

</svg>
