<svg xmlns="http://www.w3.org/2000/svg" viewBox="0 0 300 300"><rect width="100%" height="100%" fill="#EE9922"/><rect x="90" y="180" width="120" height="90" rx="35" fill="#557744"/><path d="M47 115 A 28 40 0 0 1 103 115" fill="#888888"/><path d="M197 115 A 28 40 0 0 1 253 115" fill="#990011"/><path d="M63 120 A 12 20 0 0 1 87 120" fill="#88AA88"/><path d="M213 120 A 12 20 0 0 1 237 120" fill="#BBCCCC"/><circle cx="150" cy="130" r="70" fill="#888899"/><polygon points="150,25 105,85 195,85" fill="#555555"/><polygon points="120,112 138,130 120,148 102,130" fill="#777777"/><polygon points="180,112 198,130 180,148 162,130" fill="#3322FF"/><path d="M112 130 A 8 8 0 0 0 128 130" fill="#88AA88"/><path d="M172 130 A 8 8 0 0 0 188 130" fill="#222222"/><circle cx="150" cy="170" r="32" fill="#FFCC55"/><polygon points="150,148 157,155 150,162 143,155" fill="#771111"/><path d="M130 180 A 20 10 0 0 0 170 180" fill="#CCAA99"/><polygon points="125,255 135,265 125,275 115,265" fill="#444444"/><polygon points="175,255 185,265 175,275 165,265" fill="#111100"/></svg>