<svg xmlns="http://www.w3.org/2000/svg" height="1024" preserveAspectRatio="none" style="display: block;" version="1.1" viewBox="0 0 2048 2048" width="1024">
<path d="M 0 0 L 2048 0 L 2048 2048 L 0 2048 L 0 0 z" fill="none" transform="translate(0,0)"></path>
<path d="M 1464.6 157.285 C 1500.45 124.784 1535.63 73.6922 1581.55 57.1795 C 1643.36 34.9543 1715.23 75.4784 1727.62 140.402 C 1732.33 165.187 1730.1 203.898 1730.04 230.016 C 1730.27 273.091 1730.24 316.167 1729.93 359.242 L 1730.59 360.127 C 1739.09 371.367 1754.91 387.138 1765.1 399.378 C 1786.9 426.066 1807.35 453.821 1826.39 482.538 C 1957.56 679.281 2012.31 917.173 1980.35 1151.46 C 1961.16 1297.98 1903.13 1434.68 1821.68 1555.74 C 1583.84 1909.23 1137.96 2074.49 730.006 1938.96 C 466.043 1851.27 247.165 1655.39 137.815 1399.59 C 67.6206 1238.74 43.8227 1061.46 69.111 887.793 C 91.3457 722.885 155.965 566.56 256.66 434.085 C 269.859 416.54 300.889 374.554 318.12 362.688 L 318.157 226.905 C 318.145 200.569 316.025 166.298 321.147 140.93 C 334.176 76.4082 399.32 38.7812 461.989 57.9984 C 491.834 67.1505 507.418 83.9208 528.535 105.711 C 546.237 123.114 564.354 142.753 582.67 159.352 C 602.442 179.927 623.243 199.822 643.457 220.019 C 705.085 280.881 766.046 342.416 826.328 404.613 C 841.925 398.251 880.361 391.458 897.608 388.527 C 964.481 377.163 1033.19 373.068 1100.66 381.425 C 1141.37 386.467 1181.27 395.314 1221.32 404.016 C 1229.3 394.683 1240.56 384.513 1249.39 375.576 L 1301.66 322.232 C 1355.06 267.776 1410.37 210.808 1464.6 157.285 z" fill="rgb(96,124,138)" transform="translate(0,0)"></path>
<path d="M 1729.93 359.242 L 1730.59 360.127 C 1739.09 371.367 1754.91 387.138 1765.1 399.378 C 1786.9 426.066 1807.35 453.821 1826.39 482.538 C 1957.56 679.281 2012.31 917.173 1980.35 1151.46 C 1961.16 1297.98 1903.13 1434.68 1821.68 1555.74 C 1583.84 1909.23 1137.96 2074.49 730.006 1938.96 C 466.043 1851.27 247.165 1655.39 137.815 1399.59 C 67.6206 1238.74 43.8227 1061.46 69.111 887.793 C 91.3457 722.885 155.965 566.56 256.66 434.085 C 269.859 416.54 300.889 374.554 318.12 362.688 L 317.949 685.064 L 318.113 798.41 C 318.136 816.311 318.826 842.284 317.784 859.849 C 302.225 883.487 285.026 957.983 279.5 987.156 C 241.911 1175.63 281.195 1371.31 388.614 1530.67 C 502.591 1699.5 679.118 1815.97 879.17 1854.36 C 1078.38 1892.66 1284.66 1850.45 1452.82 1736.99 C 1620.58 1623.18 1735.29 1446.47 1770.94 1246.92 C 1790.44 1141.25 1785.78 1028.06 1755.56 925.238 C 1750.17 906.912 1741.64 874.188 1731.12 858.892 C 1729.81 841.925 1730.1 814.188 1729.92 796.438 C 1729.6 753.399 1729.52 710.358 1729.67 667.318 C 1729.69 565.211 1728.49 461.215 1729.93 359.242 z" fill="rgb(254,151,0)" transform="translate(0,0)"></path>
<path d="M 1464.6 157.285 C 1500.45 124.784 1535.63 73.6922 1581.55 57.1795 C 1643.36 34.9543 1715.23 75.4784 1727.62 140.402 C 1732.33 165.187 1730.1 203.898 1730.04 230.016 C 1730.27 273.091 1730.24 316.167 1729.93 359.242 C 1728.49 461.215 1729.69 565.211 1729.67 667.318 C 1729.52 710.358 1729.6 753.399 1729.92 796.438 C 1730.1 814.188 1729.81 841.925 1731.12 858.892 C 1553.76 714.625 1375.43 571.546 1196.14 429.666 C 1204.07 422.36 1213.63 411.968 1221.32 404.016 C 1229.3 394.683 1240.56 384.513 1249.39 375.576 L 1301.66 322.232 C 1355.06 267.776 1410.37 210.808 1464.6 157.285 z" fill="rgb(0,0,0)" transform="translate(0,0)"></path>
<path d="M 1539.93 272.444 C 1579.52 272.723 1615.11 294.078 1623.97 335.393 C 1627.04 349.707 1625.82 371.868 1625.84 387.019 L 1625.65 468.942 L 1625.82 540.283 C 1625.88 557.144 1628.67 589.691 1618.46 602.797 C 1592.69 635.879 1568.57 611.298 1546.82 593.626 L 1509.79 563.79 C 1502.41 558.811 1485.07 542.522 1476.33 535.84 C 1446.37 512.925 1416.81 489.017 1387.79 464.927 C 1376.07 455.2 1369.99 449.029 1368.76 432.679 C 1367.98 422.384 1371.89 411.288 1379.16 403.826 C 1398.68 383.807 1418.01 363.905 1438.1 344.378 C 1458.77 324.301 1478.37 300.359 1501.67 283.541 C 1512.2 275.934 1527.3 273.282 1539.93 272.444 z" fill="rgb(39,52,54)" transform="translate(0,0)"></path>
<path d="M 318.12 362.688 L 318.157 226.905 C 318.145 200.569 316.025 166.298 321.147 140.93 C 334.176 76.4082 399.32 38.7812 461.989 57.9984 C 491.834 67.1505 507.418 83.9208 528.535 105.711 C 546.237 123.114 564.354 142.753 582.67 159.352 C 602.442 179.927 623.243 199.822 643.457 220.019 C 705.085 280.881 766.046 342.416 826.328 404.613 C 834.742 412.675 843.154 420.302 850.634 429.232 C 833.853 443.271 816.42 456.493 799.376 470.232 C 755.048 506.291 710.415 541.974 665.482 577.276 C 589.975 636.905 515.132 697.37 440.968 758.661 L 364.265 821.281 C 348.308 834.207 332.68 845.59 317.784 859.849 C 318.826 842.284 318.136 816.311 318.113 798.41 L 317.949 685.064 L 318.12 362.688 z" fill="rgb(0,0,0)" transform="translate(0,0)"></path>
<path d="M 495.918 273.397 C 538.399 270.167 553.908 288.912 581.327 316.282 C 594.092 328.934 606.931 341.51 619.844 354.012 C 637.237 370.889 656.228 386.953 672.386 404.792 C 684.408 418.063 685.669 441.657 672.359 454.803 C 656.386 470.578 638.454 484.636 620.871 498.58 C 596.142 517.928 571.696 537.634 547.54 557.693 C 530.18 571.911 513.203 586.503 495.859 600.737 C 482.635 611.591 475.108 618.677 456.516 617.533 C 436.602 616.309 423.773 602.405 421.897 582.863 C 420.793 569.329 421.525 554.721 421.737 540.992 C 422.031 522.332 422.118 503.67 421.998 485.008 L 421.955 395.544 C 421.921 377.942 420.393 354.385 423.65 337.636 C 430.684 301.458 460.58 276.824 495.918 273.397 z" fill="rgb(39,52,54)" transform="translate(0,0)"></path>
<path d="M 750.395 682.448 C 778.772 681.127 810.363 684.694 837.739 691.817 C 903.005 708.8 959.99 765.133 962.084 835.305 C 967.678 1022.75 759.165 1157.52 591.248 1170.9 C 533.691 1174.12 475.425 1165 430.973 1124.95 C 398.348 1095.19 378.707 1053.81 376.275 1009.72 C 368.365 844.76 558.676 707.208 706.505 686.467 C 721.349 684.384 735.445 683.178 750.395 682.448 z" fill="rgb(0,0,0)" transform="translate(0,0)"></path>
<path d="M 545.643 889.89 C 574.33 889.362 604.993 889.996 633.911 890.032 L 827.838 889.942 C 825.841 932.452 815.325 961.881 785.098 993.286 L 783.825 994.57 C 756.318 1021.83 720.508 1035.1 681.993 1034.5 C 645.373 1034.29 610.395 1019.27 585.022 992.867 C 558.075 964.845 544.913 928.521 545.643 889.89 z" fill="rgb(96,124,138)" transform="translate(0,0)"></path>
<path d="M 1272.66 682.44 C 1444.14 672.686 1651.66 815.165 1672.71 994.011 C 1679.57 1052.26 1649.75 1109.54 1599.92 1139.43 C 1562.42 1161.92 1528.36 1167.94 1485.33 1170.63 C 1380.52 1174.58 1268.81 1120.98 1189.96 1054.8 C 1041.49 930.189 1034.43 694.279 1272.66 682.44 z" fill="rgb(0,0,0)" transform="translate(0,0)"></path>
<path d="M 1217.19 889.861 C 1261.54 890.463 1306.78 890.101 1351.19 890.195 C 1400.98 890.736 1450.76 890.548 1500.54 889.629 C 1500.56 890.765 1500.58 891.901 1500.58 893.038 C 1500.8 933.3 1487.59 964.488 1459.57 992.619 C 1430.95 1019.69 1402.26 1033.26 1361.98 1033.36 C 1323.65 1033.09 1286.98 1017.72 1259.9 990.595 C 1232.6 963.188 1217.24 928.704 1217.19 889.861 z" fill="rgb(96,124,138)" transform="translate(0,0)"></path>
<path d="M 983.743 1062.38 C 990.431 1061.28 1011.92 1061.49 1019.4 1061.4 C 1057.3 1060.75 1093.18 1061.2 1125.77 1083.97 C 1190.19 1128.98 1226.84 1231.58 1179.07 1300.76 C 1153.18 1338.25 1114.35 1356.83 1070.46 1364.9 C 1069.98 1381 1070.17 1398.93 1070.29 1415.04 C 1070.49 1441.59 1070.19 1453.12 1047.6 1469.95 C 1063.83 1471.93 1076.93 1472.88 1093.3 1475.88 C 1148.48 1486.32 1200.76 1508.51 1246.6 1540.96 C 1268.57 1556.23 1307.74 1582.62 1304.37 1612.97 C 1301.44 1639.36 1274.07 1657.77 1248.53 1650.84 C 1237.19 1647.76 1218.92 1630.27 1208.8 1622.15 C 1165.34 1587.29 1119.3 1567.45 1064.23 1558.21 C 983.15 1548.46 911.037 1565.76 844.822 1614.81 C 827.373 1625.9 811.779 1649.65 789.808 1650.85 C 764.039 1652.26 743.813 1635.21 742.233 1609.62 C 740.552 1582.39 767.91 1563.83 786.964 1549.16 C 847.053 1502.88 925.557 1473.7 1001.35 1470.77 C 996.729 1468.11 992.594 1465.38 988.831 1461.54 C 983.446 1456.08 979.702 1449.21 978.024 1441.72 C 976.001 1432.54 976.822 1378.84 976.76 1365.41 C 969.827 1363.53 962.902 1361.62 956.018 1359.57 C 904.864 1344.32 856.886 1305.94 849.454 1250.19 C 843.139 1204.49 855.36 1158.15 883.395 1121.51 C 908.791 1088.62 942.415 1067.74 983.743 1062.38 z" fill="rgb(0,0,0)" transform="translate(0,0)"></path>
<path d="M 582.67 159.352 C 600.331 148.291 619.85 140.125 638.985 131.955 C 677.897 115.129 717.806 100.708 758.487 88.7754 C 976.024 25.042 1264.44 47.8808 1464.6 157.285 C 1410.37 210.808 1355.06 267.776 1301.66 322.232 L 1249.39 375.576 C 1240.56 384.513 1229.3 394.683 1221.32 404.016 C 1181.27 395.314 1141.37 386.467 1100.66 381.425 C 1033.19 373.068 964.481 377.163 897.608 388.527 C 880.361 391.458 841.925 398.251 826.328 404.613 C 766.046 342.416 705.085 280.881 643.457 220.019 C 623.243 199.822 602.442 179.927 582.67 159.352 z" fill="rgb(254,151,0)" transform="translate(0,0)"></path>
</svg>