<svg xmlns="http://www.w3.org/2000/svg" viewBox="0 0 300 300"><rect width="100%" height="100%" fill="#336677"/><rect x="90" y="180" width="120" height="90" rx="35" fill="#665533"/><ellipse cx="75" cy="115" rx="28" ry="14" fill="#DD0044" /><ellipse cx="225" cy="115" rx="28" ry="14" fill="#00AA00" /><path d="M 63 120 A 12 12 0 0 0 87 120 L 75 120 Z" fill="#9900FF"/><path d="M 213 120 A 12 12 0 0 0 237 120 L 225 120 Z" fill="#FFEE77"/><circle cx="150" cy="130" r="70" fill="#0000FF"/><rect x="128" y="40" width="45" height="30" fill="#AA7711" /><circle cx="120" cy="130" r="18" fill="#990011"/><circle cx="180" cy="130" r="18" fill="#777777"/><ellipse cx="120" cy="130" rx="8" ry="4" fill="#FFEE77" /><ellipse cx="180" cy="130" rx="8" ry="4" fill="#CCAA99" /><circle cx="150" cy="170" r="32" fill="#888888"/><rect x="143" y="148" width="14" height="14" fill="#888899"/><circle cx="150" cy="180" r="18" fill="#FFFF00"/><path d="M 150 60 A 70 70 0 0 1 150 200 L 150 130 Z" fill="#334444"/><path d="M 152 105 L 144 142" stroke="#550000" stroke-width="3"/><path d="M 162 108 L 154 147" stroke="#550000" stroke-width="3"/><path d="M 172 112 L 164 150" stroke="#550000" stroke-width="3"/><rect x="96" y="106" width="48" height="48" rx="10" ry="10" fill="#111111"/><polygon points="125,255 115,275 135,275" fill="#9900FF" /><polygon points="175,255 165,275 185,275" fill="#665533" /></svg>