<svg xmlns="http://www.w3.org/2000/svg" viewBox="0 0 300 300"><rect width="300" height="300" fill="#d31c57"/><rect x="90" y="180" width="120" height="90" rx="35" fill="#474ce1"/><ellipse cx="95" cy="75" rx="28" ry="14" fill="#c4ecec" /><ellipse cx="205" cy="75" rx="28" ry="14" fill="#e5bd18" /><rect x="89" y="70" width="12" height="20" fill="#541d2d" /><rect x="199" y="70" width="12" height="20" fill="#b58040" /><rect x="108" y="194" width="84" height="63" rx="25" fill="#34cec4"/><circle cx="150" cy="130" r="70" fill="#830d2e"/><rect x="128" y="44" width="44" height="22" rx="22" fill="#2e2850" /><polygon points="120,112 102,148 138,148" fill="#e63d1d" /><polygon points="180,112 162,148 198,148" fill="#0f10c3" /><rect x="116" y="126" width="8" height="8" fill="#653da5" /><rect x="176" y="126" width="8" height="8" fill="#25a9df" /><circle cx="150" cy="170" r="32" fill="#8d5678"/><rect x="143" y="152" width="14" height="7" rx="7" fill="#ad5987" /><rect x="141" y="171" width="18" height="18" fill="#dc198f"/><rect x="96" y="106" width="48" height="48" rx="10" ry="10" fill="#000"/><path d="M 150 60 A 70 70 0 0 1 150 200 L 150 130 Z" fill="#e2f359"/><path d="M 152 105 L 144 142" stroke="#550000" stroke-width="3"/><path d="M 162 108 L 154 147" stroke="#550000" stroke-width="3"/><path d="M 172 112 L 164 150" stroke="#550000" stroke-width="3"/><circle cx="105" cy="258" r="10" fill="#b86db1"/><circle cx="195" cy="258" r="10" fill="#3c497d"/></svg>