<svg xmlns="http://www.w3.org/2000/svg" viewBox="0 0 300 300"><rect width="100%" height="100%" fill="#11EEBB"/><rect x="90" y="180" width="120" height="90" rx="35" fill="#000000"/><path d="M 47 115 A 28 28 0 0 0 103 115 L 75 115 Z" fill="#FFCC55"/><path d="M 197 115 A 28 28 0 0 0 253 115 L 225 115 Z" fill="#BBDDDD"/><path d="M 63 120 A 12 12 0 0 1 87 120 L 75 120 Z" fill="#999999"/><path d="M 213 120 A 12 12 0 0 1 237 120 L 225 120 Z" fill="#004499"/><circle cx="150" cy="130" r="70" fill="#990011"/><rect x="128" y="40" width="45" height="30" fill="#665533" /><ellipse cx="120" cy="130" rx="18" ry="9" fill="#FFEE77" /><ellipse cx="180" cy="130" rx="18" ry="9" fill="#444444" /><path d="M 112 130 A 8 8 0 0 0 128 130 L 120 130 Z" fill="#990011"/><path d="M 172 130 A 8 8 0 0 0 188 130 L 180 130 Z" fill="#777777"/><circle cx="150" cy="170" r="32" fill="#2222DD"/><rect x="143" y="152" width="14" height="7" rx="7" fill="#FFCC55" /><rect x="141" y="176" width="18" height="8" fill="#FF8800" /><rect x="115" y="255" width="20" height="20" fill="#FF00FF"/><rect x="165" y="255" width="20" height="20" fill="#888899"/></svg>