<svg xmlns="http://www.w3.org/2000/svg" viewBox="0 0 300 300"><rect width="100%" height="100%" fill="#CCCCCC"/><rect x="90" y="180" width="120" height="90" rx="35" fill="#0000FF"/><rect x="61" y="95" width="28" height="40" fill="#BBEE77" /><rect x="211" y="95" width="28" height="40" fill="#DD00DD" /><rect x="69" y="110" width="12" height="20" fill="#FFFFFF" /><rect x="219" y="110" width="12" height="20" fill="#FF8800" /><rect x="108" y="194" width="84" height="63" rx="25" fill="#777777"/><circle cx="150" cy="130" r="70" fill="#334444"/><path d="M 105 55 A 45 45 0 0 0 195 55 L 150 55 Z" fill="#0000FF"/><ellipse cx="120" cy="130" rx="18" ry="9" fill="#444444" /><ellipse cx="180" cy="130" rx="18" ry="9" fill="#FFCC55" /><path d="M 112 130 A 8 8 0 0 1 128 130 L 120 130 Z" fill="#888899"/><path d="M 172 130 A 8 8 0 0 1 188 130 L 180 130 Z" fill="#FFEE77"/><circle cx="150" cy="170" r="32" fill="#FFFF00"/><ellipse cx="150" cy="155" rx="7" ry="3" fill="#0000DD" /><circle cx="150" cy="180" r="18" fill="#336677"/><rect x="115" y="260" width="20" height="10" rx="10" fill="#7700DD" /><rect x="165" y="260" width="20" height="10" rx="10" fill="#665533" /></svg>