<svg xmlns="http://www.w3.org/2000/svg" viewBox="0 0 300 300"><rect width="300" height="300" fill="#a2feca"/><rect x="90" y="180" width="120" height="90" rx="35" fill="#abaf6d"/><rect x="67" y="61" width="56" height="28" rx="28" fill="#6428ba" /><rect x="177" y="61" width="56" height="28" rx="28" fill="#5be2e0" /><ellipse cx="95" cy="80" rx="12" ry="6" fill="#e827d3" /><ellipse cx="205" cy="80" rx="12" ry="6" fill="#3942fd" /><rect x="108" y="194" width="84" height="63" rx="25" fill="#8b15e6"/><circle cx="150" cy="130" r="70" fill="#d6e3a7"/><circle cx="150" cy="55" r="22" fill="#0b508f"/><rect x="111" y="121" width="18" height="18" fill="#983929" /><rect x="171" y="121" width="18" height="18" fill="#2f0130" /><path d="M 112 130 A 8 8 0 0 0 128 130 L 120 130 Z" fill="#177649"/><path d="M 172 130 A 8 8 0 0 0 188 130 L 180 130 Z" fill="#3a40f9"/><circle cx="150" cy="170" r="32" fill="#79f06f"/><polygon points="150,148 143,162 157,162" fill="#4b7873" /><path d="M 132 180 A 18 18 0 0 1 168 180 L 150 180 Z" fill="#434711"/><rect x="96" y="106" width="48" height="48" rx="10" ry="10" fill="#000"/><path d="M 150 60 A 70 70 0 0 1 150 200 L 150 130 Z" fill="#7cc70c"/><path d="M 152 105 L 144 142" stroke="#550000" stroke-width="3"/><path d="M 162 108 L 154 147" stroke="#550000" stroke-width="3"/><path d="M 172 112 L 164 150" stroke="#550000" stroke-width="3"/><polygon points="105,248 95,268 115,268" fill="#63fd5c" /><polygon points="195,248 185,268 205,268" fill="#5e3bdc" /></svg>