<svg xmlns="http://www.w3.org/2000/svg" viewBox="0 0 300 300"><rect width="100%" height="100%" fill="#666633"/><rect x="90" y="180" width="120" height="90" rx="35" fill="#BBCCCC"/><path d="M 47 115 A 28 28 0 0 1 103 115 L 75 115 Z" fill="#FFEEFF"/><path d="M 197 115 A 28 28 0 0 1 253 115 L 225 115 Z" fill="#888899"/><polygon points="75,108 63,132 87,132" fill="#2222DD" /><polygon points="225,108 213,132 237,132" fill="#0000DD" /><circle cx="150" cy="130" r="70" fill="#555555"/><circle cx="150" cy="55" r="45" fill="#CCAA99"/><rect x="111" y="121" width="18" height="18" fill="#FFFF00" /><rect x="171" y="121" width="18" height="18" fill="#FF8800" /><rect x="112" y="122" width="16" height="16" fill="#553322"/><rect x="172" y="122" width="16" height="16" fill="#7700DD"/><circle cx="150" cy="170" r="32" fill="#FF0000"/><ellipse cx="150" cy="155" rx="7" ry="3" fill="#555555" /><rect x="141" y="176" width="18" height="8" fill="#111100" /><path d="M 150 60 A 70 70 0 0 1 150 200 L 150 130 Z" fill="#0000FF"/><path d="M 152 105 L 144 142" stroke="#550000" stroke-width="3"/><path d="M 162 108 L 154 147" stroke="#550000" stroke-width="3"/><path d="M 172 112 L 164 150" stroke="#550000" stroke-width="3"/><rect x="115" y="255" width="20" height="20" fill="#665533"/><rect x="165" y="255" width="20" height="20" fill="#336677"/></svg>