<svg xmlns="http://www.w3.org/2000/svg" viewBox="0 0 300 300"><rect width="300" height="300" fill="#11d623"/><rect x="90" y="180" width="120" height="90" rx="35" fill="#46a7e9"/><path d="M 67 75 A 28 28 0 0 1 123 75 L 95 75 Z" fill="#7bd17a"/><path d="M 177 75 A 28 28 0 0 1 233 75 L 205 75 Z" fill="#713808"/><path d="M 83 80 A 12 12 0 0 0 107 80 L 95 80 Z" fill="#9ad644"/><path d="M 193 80 A 12 12 0 0 0 217 80 L 205 80 Z" fill="#0df0e8"/><rect x="108" y="194" width="84" height="63" rx="25" fill="#f6144a"/><circle cx="150" cy="130" r="70" fill="#dc4d8c"/><rect x="128" y="33" width="44" height="44" fill="#73bbdd"/><rect x="111" y="121" width="18" height="18" fill="#d3ef44" /><rect x="171" y="121" width="18" height="18" fill="#06e845" /><rect x="116" y="126" width="8" height="8" fill="#a6d928" /><rect x="176" y="126" width="8" height="8" fill="#da3748" /><circle cx="150" cy="170" r="32" fill="#e6d9ca"/><path d="M 143 155 A 7 7 0 0 1 157 155 L 150 155 Z" fill="#181efa"/><rect x="132" y="171" width="36" height="18" rx="18" fill="#038b81" /><rect x="96" y="106" width="48" height="48" rx="10" ry="10" fill="#000"/><path d="M 150 60 A 70 70 0 0 1 150 200 L 150 130 Z" fill="#cd2518"/><path d="M 152 105 L 144 142" stroke="#550000" stroke-width="3"/><path d="M 162 108 L 154 147" stroke="#550000" stroke-width="3"/><path d="M 172 112 L 164 150" stroke="#550000" stroke-width="3"/><rect x="95" y="248" width="20" height="20" fill="#506eeb"/><rect x="185" y="248" width="20" height="20" fill="#d92a89"/></svg>