<svg xmlns="http://www.w3.org/2000/svg" viewBox="0 0 300 300"><rect width="300" height="300" fill="#f19b3b"/><rect x="90" y="180" width="120" height="90" rx="35" fill="#a1b005"/><path d="M 67 75 A 28 28 0 0 0 123 75 L 95 75 Z" fill="#4d2e17"/><path d="M 177 75 A 28 28 0 0 0 233 75 L 205 75 Z" fill="#47f74d"/><rect x="83" y="68" width="24" height="24" fill="#a384d4"/><rect x="193" y="68" width="24" height="24" fill="#ca44ca"/><rect x="108" y="194" width="84" height="63" rx="25" fill="#a75eb1"/><circle cx="150" cy="130" r="70" fill="#4b5d8e"/><path d="M 128 55 A 22 22 0 0 1 172 55 L 150 55 Z" fill="#bb6ec8"/><path d="M 102 130 A 18 18 0 0 1 138 130 L 120 130 Z" fill="#73f05b"/><path d="M 162 130 A 18 18 0 0 1 198 130 L 180 130 Z" fill="#09a0f0"/><rect x="116" y="126" width="8" height="8" fill="#6a990a" /><rect x="176" y="126" width="8" height="8" fill="#245014" /><circle cx="150" cy="170" r="32" fill="#8ca323"/><rect x="143" y="152" width="14" height="7" rx="7" fill="#e3606f" /><polygon points="150,171 141,189 159,189" fill="#21ca74" /><rect x="96" y="106" width="48" height="48" rx="10" ry="10" fill="#000"/><path d="M 150 60 A 70 70 0 0 1 150 200 L 150 130 Z" fill="#ff7a93"/><path d="M 152 105 L 144 142" stroke="#550000" stroke-width="3"/><path d="M 162 108 L 154 147" stroke="#550000" stroke-width="3"/><path d="M 172 112 L 164 150" stroke="#550000" stroke-width="3"/><polygon points="105,248 95,268 115,268" fill="#9bc041" /><polygon points="195,248 185,268 205,268" fill="#c332b7" /></svg>