<svg xmlns="http://www.w3.org/2000/svg" viewBox="0 0 300 300"><rect width="100%" height="100%" fill="#CCCCCC"/><rect x="90" y="180" width="120" height="90" rx="35" fill="#00AA00"/><rect x="47" y="87" width="56" height="56" fill="#FFEEFF"/><rect x="197" y="87" width="56" height="56" fill="#FFEE77"/><path d="M 63 120 A 12 12 0 0 1 87 120 L 75 120 Z" fill="#555555"/><path d="M 213 120 A 12 12 0 0 1 237 120 L 225 120 Z" fill="#FF00FF"/><circle cx="150" cy="130" r="70" fill="#665533"/><rect x="105" y="33" width="90" height="45" rx="45" fill="#FFDD11" /><rect x="111" y="121" width="18" height="18" fill="#FFFF00" /><rect x="171" y="121" width="18" height="18" fill="#AA7711" /><rect x="116" y="126" width="8" height="8" fill="#3322FF" /><rect x="176" y="126" width="8" height="8" fill="#FF00FF" /><circle cx="150" cy="170" r="32" fill="#FFEE77"/><path d="M 143 155 A 7 7 0 0 1 157 155 L 150 155 Z" fill="#CCAA99"/><polygon points="150,171 141,189 159,189" fill="#888899" /><path d="M 150 60 A 70 70 0 0 1 150 200 L 150 130 Z" fill="#888888"/><path d="M 152 105 L 144 142" stroke="#550000" stroke-width="3"/><path d="M 162 108 L 154 147" stroke="#550000" stroke-width="3"/><path d="M 172 112 L 164 150" stroke="#550000" stroke-width="3"/><circle cx="125" cy="265" r="10" fill="#AA7711"/><circle cx="175" cy="265" r="10" fill="#FFDD11"/></svg>