<svg xmlns="http://www.w3.org/2000/svg" viewBox="0 0 300 300"><rect width="300" height="300" fill="#00d888"/><rect x="90" y="180" width="120" height="90" rx="35" fill="#c54ae9"/><polygon points="95,47 67,103 123,103" fill="#16b942" /><polygon points="205,47 177,103 233,103" fill="#4ea1db" /><path d="M 83 80 A 12 12 0 0 0 107 80 L 95 80 Z" fill="#34c258"/><path d="M 193 80 A 12 12 0 0 0 217 80 L 205 80 Z" fill="#1fd219"/><rect x="108" y="194" width="84" height="63" rx="25" fill="#edfdcd"/><circle cx="150" cy="130" r="70" fill="#115fb9"/><rect x="128" y="44" width="44" height="22" rx="22" fill="#6a4191" /><polygon points="120,112 102,148 138,148" fill="#78a02a" /><polygon points="180,112 162,148 198,148" fill="#cf5eb4" /><path d="M 112 130 A 8 8 0 0 1 128 130 L 120 130 Z" fill="#210eb6"/><path d="M 172 130 A 8 8 0 0 1 188 130 L 180 130 Z" fill="#4138af"/><circle cx="150" cy="170" r="32" fill="#b0feeb"/><polygon points="150,148 143,162 157,162" fill="#f8179d" /><rect x="132" y="171" width="36" height="18" rx="18" fill="#6cd7bc" /><rect x="96" y="106" width="48" height="48" rx="10" ry="10" fill="#000"/><path d="M 150 60 A 70 70 0 0 1 150 200 L 150 130 Z" fill="#f3c0fa"/><path d="M 152 105 L 144 142" stroke="#550000" stroke-width="3"/><path d="M 162 108 L 154 147" stroke="#550000" stroke-width="3"/><path d="M 172 112 L 164 150" stroke="#550000" stroke-width="3"/><circle cx="105" cy="258" r="10" fill="#7d3731"/><circle cx="195" cy="258" r="10" fill="#ea847b"/></svg>