<svg xmlns="http://www.w3.org/2000/svg" viewBox="0 0 300 300"><rect width="100%" height="100%" fill="#EE9922"/><rect x="90" y="180" width="120" height="90" rx="35" fill="#3322FF"/><path d="M 47 115 A 28 28 0 0 0 103 115 L 75 115 Z" fill="#0000FF"/><path d="M 197 115 A 28 28 0 0 0 253 115 L 225 115 Z" fill="#FF4488"/><rect x="63" y="108" width="24" height="24" fill="#AABEEE"/><rect x="213" y="108" width="24" height="24" fill="#555555"/><rect x="108" y="194" width="84" height="63" rx="25" fill="#665533"/><circle cx="150" cy="130" r="70" fill="#FFCC55"/><rect x="128" y="40" width="45" height="30" fill="#FF0000" /><rect x="102" y="112" width="36" height="36" fill="#888888"/><rect x="162" y="112" width="36" height="36" fill="#777777"/><polygon points="120,122 112,138 128,138" fill="#336677" /><polygon points="180,122 172,138 188,138" fill="#FFDD11" /><circle cx="150" cy="170" r="32" fill="#004499"/><rect x="143" y="148" width="14" height="14" fill="#779999"/><rect x="141" y="176" width="18" height="8" fill="#FF8899" /><path d="M 150 60 A 70 70 0 0 1 150 200 L 150 130 Z" fill="#77FF99"/><path d="M 152 105 L 144 142" stroke="#550000" stroke-width="3"/><path d="M 162 108 L 154 147" stroke="#550000" stroke-width="3"/><path d="M 172 112 L 164 150" stroke="#550000" stroke-width="3"/><rect x="96" y="106" width="48" height="48" rx="10" ry="10" fill="#111111"/><path d="M 115 265 A 10 10 0 0 1 135 265 L 125 265 Z" fill="#BBEE77"/><path d="M 165 265 A 10 10 0 0 1 185 265 L 175 265 Z" fill="#DD6600"/></svg>