<svg xmlns="http://www.w3.org/2000/svg" viewBox="0 0 300 300"><rect width="100%" height="100%" fill="#11EEBB"/><rect x="90" y="180" width="120" height="90" rx="35" fill="#555555"/><path d="M 47 115 A 28 28 0 0 1 103 115 L 75 115 Z" fill="#FFCC55"/><path d="M 197 115 A 28 28 0 0 1 253 115 L 225 115 Z" fill="#999999"/><rect x="63" y="114" width="24" height="12" rx="12" fill="#000000" /><rect x="213" y="114" width="24" height="12" rx="12" fill="#111100" /><circle cx="150" cy="130" r="70" fill="#FF00FF"/><polygon points="150,10 105,100 195,100" fill="#990011" /><polygon points="120,112 102,148 138,148" fill="#DD0044" /><polygon points="180,112 162,148 198,148" fill="#334444" /><rect x="116" y="126" width="8" height="8" fill="#7700DD" /><rect x="176" y="126" width="8" height="8" fill="#BBEE77" /><circle cx="150" cy="170" r="32" fill="#AA7711"/><rect x="143" y="152" width="14" height="7" rx="7" fill="#557744" /><polygon points="150,171 141,189 159,189" fill="#222222" /><rect x="96" y="106" width="48" height="48" rx="10" ry="10" fill="#111111"/><rect x="115" y="260" width="20" height="10" rx="10" fill="#FF8800" /><rect x="165" y="260" width="20" height="10" rx="10" fill="#FFFF00" /></svg>