<svg xmlns="http://www.w3.org/2000/svg" viewBox="0 0 300 300"><rect width="300" height="300" fill="#7c79e6"/><rect x="90" y="180" width="120" height="90" rx="35" fill="#e4ca1d"/><rect x="81" y="55" width="28" height="40" fill="#041e46" /><rect x="191" y="55" width="28" height="40" fill="#b76f37" /><polygon points="95,68 83,92 107,92" fill="#94d296" /><polygon points="205,68 193,92 217,92" fill="#3789a9" /><rect x="108" y="194" width="84" height="63" rx="25" fill="#46d9b8"/><circle cx="150" cy="130" r="70" fill="#edcead"/><rect x="139" y="48" width="22" height="15" fill="#5ca040" /><circle cx="120" cy="130" r="18" fill="#4eb91e"/><circle cx="180" cy="130" r="18" fill="#343f16"/><rect x="116" y="126" width="8" height="8" fill="#fce132" /><rect x="176" y="126" width="8" height="8" fill="#e9a3da" /><circle cx="150" cy="170" r="32" fill="#36f722"/><rect x="143" y="148" width="14" height="14" fill="#4128b4"/><rect x="141" y="176" width="18" height="8" fill="#86a650" /><rect x="96" y="106" width="48" height="48" rx="10" ry="10" fill="#000"/><path d="M 150 60 A 70 70 0 0 1 150 200 L 150 130 Z" fill="#00101a"/><path d="M 152 105 L 144 142" stroke="#550000" stroke-width="3"/><path d="M 162 108 L 154 147" stroke="#550000" stroke-width="3"/><path d="M 172 112 L 164 150" stroke="#550000" stroke-width="3"/><rect x="95" y="248" width="20" height="20" fill="#fb8d01"/><rect x="185" y="248" width="20" height="20" fill="#bfe524"/></svg>