<svg xmlns="http://www.w3.org/2000/svg" viewBox="0 0 300 300"><rect width="100%" height="100%" fill="#EE9922"/><rect x="90" y="180" width="120" height="90" rx="35" fill="#FFDD11"/><path d="M 47 115 A 28 28 0 0 0 103 115 L 75 115 Z" fill="#DD00DD"/><path d="M 197 115 A 28 28 0 0 0 253 115 L 225 115 Z" fill="#2222DD"/><rect x="63" y="108" width="24" height="24" fill="#0000FF"/><rect x="213" y="108" width="24" height="24" fill="#FFDD11"/><circle cx="150" cy="130" r="70" fill="#004499"/><rect x="128" y="40" width="45" height="30" fill="#7700DD" /><ellipse cx="120" cy="130" rx="18" ry="9" fill="#FFFF00" /><ellipse cx="180" cy="130" rx="18" ry="9" fill="#AA7711" /><rect x="112" y="122" width="16" height="16" fill="#FFFFFF"/><rect x="172" y="122" width="16" height="16" fill="#0000FF"/><circle cx="150" cy="170" r="32" fill="#BBEE77"/><path d="M 143 155 A 7 7 0 0 1 157 155 L 150 155 Z" fill="#336677"/><ellipse cx="150" cy="180" rx="18" ry="9" fill="#00FF00" /><path d="M 150 60 A 70 70 0 0 1 150 200 L 150 130 Z" fill="#111100"/><path d="M 152 105 L 144 142" stroke="#550000" stroke-width="3"/><path d="M 162 108 L 154 147" stroke="#550000" stroke-width="3"/><path d="M 172 112 L 164 150" stroke="#550000" stroke-width="3"/><ellipse cx="125" cy="265" rx="10" ry="5" fill="#990011" /><ellipse cx="175" cy="265" rx="10" ry="5" fill="#FFDD11" /></svg>