<svg xmlns="http://www.w3.org/2000/svg" viewBox="0 0 300 300"><rect width="100%" height="100%" fill="#EE9922"/><rect x="90" y="180" width="120" height="90" rx="35" fill="#FF0000"/><polygon points="75,87 47,143 103,143" fill="#FFDD11" /><polygon points="225,87 197,143 253,143" fill="#BBDDDD" /><rect x="63" y="114" width="24" height="12" rx="12" fill="#FFEEFF" /><rect x="213" y="114" width="24" height="12" rx="12" fill="#BBDDDD" /><circle cx="150" cy="130" r="70" fill="#888888"/><circle cx="150" cy="55" r="45" fill="#336677"/><rect x="102" y="121" width="36" height="18" rx="18" fill="#553322" /><rect x="162" y="121" width="36" height="18" rx="18" fill="#FF8899" /><path d="M 112 130 A 8 8 0 0 0 128 130 L 120 130 Z" fill="#00FF00"/><path d="M 172 130 A 8 8 0 0 0 188 130 L 180 130 Z" fill="#FF00FF"/><circle cx="150" cy="170" r="32" fill="#771111"/><path d="M 143 155 A 7 7 0 0 0 157 155 L 150 155 Z" fill="#FFEE77"/><path d="M 132 180 A 18 18 0 0 1 168 180 L 150 180 Z" fill="#555555"/><polygon points="125,255 115,275 135,275" fill="#AABEEE" /><polygon points="175,255 165,275 185,275" fill="#990011" /></svg>