<svg xmlns="http://www.w3.org/2000/svg" viewBox="0 0 300 300"><rect width="300" height="300" fill="#453f92"/><rect x="90" y="180" width="120" height="90" rx="35" fill="#c55bff"/><ellipse cx="95" cy="75" rx="28" ry="14" fill="#5c83b8" /><ellipse cx="205" cy="75" rx="28" ry="14" fill="#10ca17" /><polygon points="95,68 83,92 107,92" fill="#135182" /><polygon points="205,68 193,92 217,92" fill="#95f7d4" /><rect x="108" y="194" width="84" height="63" rx="25" fill="#29058b"/><circle cx="150" cy="130" r="70" fill="#c18b09"/><rect x="139" y="48" width="22" height="15" fill="#2fd9cd" /><circle cx="120" cy="130" r="18" fill="#59ce5e"/><circle cx="180" cy="130" r="18" fill="#5cdcf9"/><polygon points="120,122 112,138 128,138" fill="#c68661" /><polygon points="180,122 172,138 188,138" fill="#3b0ff5" /><circle cx="150" cy="170" r="32" fill="#383526"/><rect x="143" y="148" width="14" height="14" fill="#c92654"/><polygon points="150,171 141,189 159,189" fill="#ce7f2a" /><rect x="96" y="106" width="48" height="48" rx="10" ry="10" fill="#000"/><path d="M 150 60 A 70 70 0 0 1 150 200 L 150 130 Z" fill="#933c5c"/><path d="M 152 105 L 144 142" stroke="#550000" stroke-width="3"/><path d="M 162 108 L 154 147" stroke="#550000" stroke-width="3"/><path d="M 172 112 L 164 150" stroke="#550000" stroke-width="3"/><rect x="95" y="248" width="20" height="20" fill="#69fec0"/><rect x="185" y="248" width="20" height="20" fill="#708309"/></svg>