<svg xmlns="http://www.w3.org/2000/svg" viewBox="0 0 300 300"><rect width="300" height="300" fill="#e6545b"/><rect x="90" y="180" width="120" height="90" rx="35" fill="#51c086"/><circle cx="95" cy="75" r="28" fill="#17446f"/><circle cx="205" cy="75" r="28" fill="#10e468"/><ellipse cx="95" cy="80" rx="12" ry="6" fill="#87a195" /><ellipse cx="205" cy="80" rx="12" ry="6" fill="#9f0842" /><rect x="108" y="194" width="84" height="63" rx="25" fill="#c2c9d1"/><circle cx="150" cy="130" r="70" fill="#25c2d3"/><polygon points="150,33 128,77 172,77" fill="#b51730" /><rect x="111" y="121" width="18" height="18" fill="#97782f" /><rect x="171" y="121" width="18" height="18" fill="#38d7f8" /><polygon points="120,122 112,138 128,138" fill="#615955" /><polygon points="180,122 172,138 188,138" fill="#f8d9c3" /><circle cx="150" cy="170" r="32" fill="#7e90d6"/><ellipse cx="150" cy="155" rx="7" ry="3" fill="#56a68b" /><rect x="141" y="171" width="18" height="18" fill="#048253"/><rect x="96" y="106" width="48" height="48" rx="10" ry="10" fill="#000"/><path d="M 150 60 A 70 70 0 0 1 150 200 L 150 130 Z" fill="#f80be4"/><path d="M 152 105 L 144 142" stroke="#550000" stroke-width="3"/><path d="M 162 108 L 154 147" stroke="#550000" stroke-width="3"/><path d="M 172 112 L 164 150" stroke="#550000" stroke-width="3"/><rect x="95" y="253" width="20" height="10" rx="10" fill="#fb5611" /><rect x="185" y="253" width="20" height="10" rx="10" fill="#acb006" /></svg>