<svg xmlns="http://www.w3.org/2000/svg" viewBox="0 0 300 300"><rect width="100%" height="100%" fill="#99DDEE"/><rect x="90" y="180" width="120" height="90" rx="35" fill="#DD0044"/><circle cx="75" cy="115" r="28" fill="#DD00DD"/><circle cx="225" cy="115" r="28" fill="#DD6600"/><polygon points="75,108 63,132 87,132" fill="#0000DD" /><polygon points="225,108 213,132 237,132" fill="#777777" /><rect x="108" y="194" width="84" height="63" rx="25" fill="#88AA88"/><circle cx="150" cy="130" r="70" fill="#AA7711"/><circle cx="150" cy="55" r="45" fill="#DD6600"/><path d="M 102 130 A 18 18 0 0 0 138 130 L 120 130 Z" fill="#000000"/><path d="M 162 130 A 18 18 0 0 0 198 130 L 180 130 Z" fill="#557744"/><rect x="116" y="126" width="8" height="8" fill="#771111" /><rect x="176" y="126" width="8" height="8" fill="#7700DD" /><circle cx="150" cy="170" r="32" fill="#BBDDDD"/><rect x="143" y="152" width="14" height="7" rx="7" fill="#000000" /><rect x="132" y="171" width="36" height="18" rx="18" fill="#334444" /><rect x="96" y="106" width="48" height="48" rx="10" ry="10" fill="#111111"/><polygon points="125,255 115,275 135,275" fill="#888888" /><polygon points="175,255 165,275 185,275" fill="#FFFF00" /></svg>