<svg xmlns="http://www.w3.org/2000/svg" viewBox="0 0 300 300"><rect width="100%" height="100%" fill="#99DDEE"/><rect x="90" y="180" width="120" height="90" rx="35" fill="#FF8800"/><path d="M 47 115 A 28 28 0 0 0 103 115 L 75 115 Z" fill="#FF8800"/><path d="M 197 115 A 28 28 0 0 0 253 115 L 225 115 Z" fill="#DD6600"/><rect x="69" y="110" width="12" height="20" fill="#FFFFFF" /><rect x="219" y="110" width="12" height="20" fill="#77FF99" /><circle cx="150" cy="130" r="70" fill="#336677"/><rect x="105" y="10" width="90" height="90" fill="#111100"/><path d="M 102 130 A 18 18 0 0 1 138 130 L 120 130 Z" fill="#222222"/><path d="M 162 130 A 18 18 0 0 1 198 130 L 180 130 Z" fill="#DD00DD"/><rect x="116" y="126" width="8" height="8" fill="#BBDDDD" /><rect x="176" y="126" width="8" height="8" fill="#0000FF" /><circle cx="150" cy="170" r="32" fill="#777777"/><path d="M 143 155 A 7 7 0 0 1 157 155 L 150 155 Z" fill="#9900FF"/><rect x="141" y="171" width="18" height="18" fill="#FF4488"/><path d="M 150 60 A 70 70 0 0 1 150 200 L 150 130 Z" fill="#88AA88"/><path d="M 152 105 L 144 142" stroke="#550000" stroke-width="3"/><path d="M 162 108 L 154 147" stroke="#550000" stroke-width="3"/><path d="M 172 112 L 164 150" stroke="#550000" stroke-width="3"/><rect x="96" y="106" width="48" height="48" rx="10" ry="10" fill="#111111"/><circle cx="125" cy="265" r="10" fill="#BBDDDD"/><circle cx="175" cy="265" r="10" fill="#990011"/></svg>