<svg xmlns="http://www.w3.org/2000/svg" viewBox="0 0 300 300"><rect width="100%" height="100%" fill="#DDDAAA"/><rect x="90" y="180" width="120" height="90" rx="35" fill="#000000"/><rect x="47" y="101" width="56" height="28" rx="28" fill="#BBCCCC" /><rect x="197" y="101" width="56" height="28" rx="28" fill="#FF0000" /><rect x="63" y="114" width="24" height="12" rx="12" fill="#2222DD" /><rect x="213" y="114" width="24" height="12" rx="12" fill="#AA7711" /><rect x="108" y="194" width="84" height="63" rx="25" fill="#00FF00"/><circle cx="150" cy="130" r="70" fill="#FFFF00"/><rect x="128" y="40" width="45" height="30" fill="#779999" /><circle cx="120" cy="130" r="18" fill="#FF0000"/><circle cx="180" cy="130" r="18" fill="#111100"/><rect x="116" y="126" width="8" height="8" fill="#222222" /><rect x="176" y="126" width="8" height="8" fill="#990011" /><circle cx="150" cy="170" r="32" fill="#222222"/><polygon points="150,148 143,162 157,162" fill="#FF00FF" /><rect x="141" y="171" width="18" height="18" fill="#DD00DD"/><path d="M 150 60 A 70 70 0 0 1 150 200 L 150 130 Z" fill="#553322"/><path d="M 152 105 L 144 142" stroke="#550000" stroke-width="3"/><path d="M 162 108 L 154 147" stroke="#550000" stroke-width="3"/><path d="M 172 112 L 164 150" stroke="#550000" stroke-width="3"/><ellipse cx="125" cy="265" rx="10" ry="5" fill="#336677" /><ellipse cx="175" cy="265" rx="10" ry="5" fill="#CCEEFF" /></svg>