<svg xmlns="http://www.w3.org/2000/svg" viewBox="0 0 300 300"><rect width="100%" height="100%" fill="#CCCCCC"/><rect x="90" y="180" width="120" height="90" rx="35" fill="#888888"/><circle cx="75" cy="115" r="28" fill="#777777"/><circle cx="225" cy="115" r="28" fill="#334444"/><rect x="63" y="108" width="24" height="24" fill="#BBDDDD"/><rect x="213" y="108" width="24" height="24" fill="#CCEEFF"/><circle cx="150" cy="130" r="70" fill="#CCEEFF"/><rect x="105" y="33" width="90" height="45" rx="45" fill="#334444" /><path d="M 102 130 A 18 18 0 0 1 138 130 L 120 130 Z" fill="#0000FF"/><path d="M 162 130 A 18 18 0 0 1 198 130 L 180 130 Z" fill="#FFFF00"/><path d="M 112 130 A 8 8 0 0 1 128 130 L 120 130 Z" fill="#888899"/><path d="M 172 130 A 8 8 0 0 1 188 130 L 180 130 Z" fill="#FF4488"/><circle cx="150" cy="170" r="32" fill="#FF4488"/><ellipse cx="150" cy="155" rx="7" ry="3" fill="#990011" /><rect x="132" y="171" width="36" height="18" rx="18" fill="#444444" /><path d="M 150 60 A 70 70 0 0 1 150 200 L 150 130 Z" fill="#555555"/><path d="M 152 105 L 144 142" stroke="#550000" stroke-width="3"/><path d="M 162 108 L 154 147" stroke="#550000" stroke-width="3"/><path d="M 172 112 L 164 150" stroke="#550000" stroke-width="3"/><rect x="96" y="106" width="48" height="48" rx="10" ry="10" fill="#111111"/><path d="M 115 265 A 10 10 0 0 1 135 265 L 125 265 Z" fill="#888899"/><path d="M 165 265 A 10 10 0 0 1 185 265 L 175 265 Z" fill="#BBCCCC"/></svg>