<svg xmlns="http://www.w3.org/2000/svg" viewBox="0 0 300 300"><rect width="100%" height="100%" fill="#EE9922"/><rect x="90" y="180" width="120" height="90" rx="35" fill="#222222"/><path d="M47 115 A 28 40 0 0 1 103 115" fill="#888899"/><path d="M197 115 A 28 40 0 0 1 253 115" fill="#557744"/><path d="M63 120 A 12 20 0 0 0 87 120" fill="#004499"/><path d="M213 120 A 12 20 0 0 0 237 120" fill="#990011"/><circle cx="150" cy="130" r="70" fill="#665533"/><rect x="105" y="25" width="90" height="60" fill="#553322"/><rect x="102" y="112" width="36" height="36" fill="#111100"/><rect x="162" y="112" width="36" height="36" fill="#FF8899"/><path d="M112 130 A 8 8 0 0 0 128 130" fill="#553322"/><path d="M172 130 A 8 8 0 0 0 188 130" fill="#DD0044"/><circle cx="150" cy="170" r="32" fill="#222222"/><polygon points="150,148 157,155 150,162 143,155" fill="#FFCC55"/><circle cx="150" cy="180" r="20" fill="#BBEE77"/><path d="M115 265 A 10 10 0 0 0 135 265" fill="#CCAA99"/><path d="M165 265 A 10 10 0 0 0 185 265" fill="#334444"/></svg>