<svg xmlns="http://www.w3.org/2000/svg" viewBox="0 0 300 300"><rect width="300" height="300" fill="#14b237"/><rect x="90" y="180" width="120" height="90" rx="35" fill="#487a2f"/><path d="M 67 75 A 28 28 0 0 1 123 75 L 95 75 Z" fill="#b6a1d8"/><path d="M 177 75 A 28 28 0 0 1 233 75 L 205 75 Z" fill="#704c40"/><circle cx="95" cy="80" r="12" fill="#b8b8c1"/><circle cx="205" cy="80" r="12" fill="#059cf9"/><rect x="108" y="194" width="84" height="63" rx="25" fill="#3f5653"/><circle cx="150" cy="130" r="70" fill="#e339b5"/><circle cx="150" cy="55" r="22" fill="#494676"/><rect x="111" y="121" width="18" height="18" fill="#c08fe7" /><rect x="171" y="121" width="18" height="18" fill="#38e26e" /><path d="M 112 130 A 8 8 0 0 0 128 130 L 120 130 Z" fill="#b41871"/><path d="M 172 130 A 8 8 0 0 0 188 130 L 180 130 Z" fill="#8ef4ac"/><circle cx="150" cy="170" r="32" fill="#8ed4d6"/><polygon points="150,148 143,162 157,162" fill="#5612cf" /><rect x="141" y="176" width="18" height="8" fill="#5c462f" /><rect x="96" y="106" width="48" height="48" rx="10" ry="10" fill="#000"/><path d="M 150 60 A 70 70 0 0 1 150 200 L 150 130 Z" fill="#4b8c6e"/><path d="M 152 105 L 144 142" stroke="#550000" stroke-width="3"/><path d="M 162 108 L 154 147" stroke="#550000" stroke-width="3"/><path d="M 172 112 L 164 150" stroke="#550000" stroke-width="3"/><circle cx="105" cy="258" r="10" fill="#a7044d"/><circle cx="195" cy="258" r="10" fill="#c32568"/></svg>