<svg xmlns="http://www.w3.org/2000/svg" viewBox="0 0 300 300"><rect width="100%" height="100%" fill="#666633"/><rect x="90" y="180" width="120" height="90" rx="35" fill="#CCAA99"/><rect x="61" y="95" width="28" height="40" fill="#665533" /><rect x="211" y="95" width="28" height="40" fill="#FF4488" /><circle cx="75" cy="120" r="12" fill="#771111"/><circle cx="225" cy="120" r="12" fill="#000000"/><rect x="108" y="194" width="84" height="63" rx="25" fill="#77FF99"/><circle cx="150" cy="130" r="70" fill="#FF0000"/><circle cx="150" cy="55" r="45" fill="#3322FF"/><path d="M 102 130 A 18 18 0 0 0 138 130 L 120 130 Z" fill="#FFDD11"/><path d="M 162 130 A 18 18 0 0 0 198 130 L 180 130 Z" fill="#336677"/><path d="M 112 130 A 8 8 0 0 1 128 130 L 120 130 Z" fill="#FFDD11"/><path d="M 172 130 A 8 8 0 0 1 188 130 L 180 130 Z" fill="#0000DD"/><circle cx="150" cy="170" r="32" fill="#FF8899"/><circle cx="150" cy="155" r="7" fill="#222222"/><polygon points="150,171 141,189 159,189" fill="#0000FF" /><path d="M 150 60 A 70 70 0 0 1 150 200 L 150 130 Z" fill="#888899"/><path d="M 152 105 L 144 142" stroke="#550000" stroke-width="3"/><path d="M 162 108 L 154 147" stroke="#550000" stroke-width="3"/><path d="M 172 112 L 164 150" stroke="#550000" stroke-width="3"/><rect x="96" y="106" width="48" height="48" rx="10" ry="10" fill="#111111"/><polygon points="125,255 115,275 135,275" fill="#0000DD" /><polygon points="175,255 165,275 185,275" fill="#77FF99" /></svg>