<svg xmlns="http://www.w3.org/2000/svg" viewBox="0 0 300 300"><rect width="100%" height="100%" fill="#CCCCCC"/><rect x="90" y="180" width="120" height="90" rx="35" fill="#88AA88"/><path d="M 47 115 A 28 28 0 0 1 103 115 L 75 115 Z" fill="#BBDDDD"/><path d="M 197 115 A 28 28 0 0 1 253 115 L 225 115 Z" fill="#111100"/><rect x="63" y="108" width="24" height="24" fill="#FFFFFF"/><rect x="213" y="108" width="24" height="24" fill="#990011"/><rect x="108" y="194" width="84" height="63" rx="25" fill="#BBEE77"/><circle cx="150" cy="130" r="70" fill="#222222"/><rect x="128" y="40" width="45" height="30" fill="#FFFFFF" /><ellipse cx="120" cy="130" rx="18" ry="9" fill="#0000DD" /><ellipse cx="180" cy="130" rx="18" ry="9" fill="#0000FF" /><path d="M 112 130 A 8 8 0 0 1 128 130 L 120 130 Z" fill="#990011"/><path d="M 172 130 A 8 8 0 0 1 188 130 L 180 130 Z" fill="#111100"/><circle cx="150" cy="170" r="32" fill="#CCAA99"/><rect x="143" y="148" width="14" height="14" fill="#BBEE77"/><polygon points="150,171 141,189 159,189" fill="#BBDDDD" /><path d="M 150 60 A 70 70 0 0 1 150 200 L 150 130 Z" fill="#000000"/><path d="M 152 105 L 144 142" stroke="#550000" stroke-width="3"/><path d="M 162 108 L 154 147" stroke="#550000" stroke-width="3"/><path d="M 172 112 L 164 150" stroke="#550000" stroke-width="3"/><rect x="115" y="260" width="20" height="10" rx="10" fill="#FF8899" /><rect x="165" y="260" width="20" height="10" rx="10" fill="#BBDDDD" /></svg>