<svg xmlns="http://www.w3.org/2000/svg" viewBox="0 0 300 300"><rect width="300" height="300" fill="#048624"/><rect x="90" y="180" width="120" height="90" rx="35" fill="#e0b96b"/><polygon points="95,47 67,103 123,103" fill="#113b4f" /><polygon points="205,47 177,103 233,103" fill="#2024ec" /><rect x="89" y="70" width="12" height="20" fill="#63234a" /><rect x="199" y="70" width="12" height="20" fill="#8b59e6" /><rect x="108" y="194" width="84" height="63" rx="25" fill="#291f92"/><circle cx="150" cy="130" r="70" fill="#282243"/><ellipse cx="150" cy="55" rx="22" ry="11" fill="#059dcb" /><circle cx="120" cy="130" r="18" fill="#ddaecf"/><circle cx="180" cy="130" r="18" fill="#33e34f"/><path d="M 112 130 A 8 8 0 0 0 128 130 L 120 130 Z" fill="#3f2c83"/><path d="M 172 130 A 8 8 0 0 0 188 130 L 180 130 Z" fill="#4ea2ff"/><circle cx="150" cy="170" r="32" fill="#f8bff4"/><rect x="143" y="152" width="14" height="7" rx="7" fill="#698b24" /><path d="M 132 180 A 18 18 0 0 0 168 180 L 150 180 Z" fill="#fc1fbc"/><rect x="96" y="106" width="48" height="48" rx="10" ry="10" fill="#000"/><path d="M 150 60 A 70 70 0 0 1 150 200 L 150 130 Z" fill="#579649"/><path d="M 152 105 L 144 142" stroke="#550000" stroke-width="3"/><path d="M 162 108 L 154 147" stroke="#550000" stroke-width="3"/><path d="M 172 112 L 164 150" stroke="#550000" stroke-width="3"/><path d="M 95 258 A 10 10 0 0 1 115 258 L 105 258 Z" fill="#6ba6f3"/><path d="M 185 258 A 10 10 0 0 1 205 258 L 195 258 Z" fill="#d51cae"/></svg>