<svg xmlns="http://www.w3.org/2000/svg" viewBox="0 0 300 300"><rect width="100%" height="100%" fill="#DDDAAA"/><rect x="90" y="180" width="120" height="90" rx="35" fill="#336677"/><circle cx="75" cy="115" r="28" fill="#004499"/><circle cx="225" cy="115" r="28" fill="#AA7711"/><path d="M 63 120 A 12 12 0 0 0 87 120 L 75 120 Z" fill="#777777"/><path d="M 213 120 A 12 12 0 0 0 237 120 L 225 120 Z" fill="#222222"/><rect x="108" y="194" width="84" height="63" rx="25" fill="#444444"/><circle cx="150" cy="130" r="70" fill="#111100"/><rect x="128" y="40" width="45" height="30" fill="#BBDDDD" /><rect x="102" y="121" width="36" height="18" rx="18" fill="#FF8800" /><rect x="162" y="121" width="36" height="18" rx="18" fill="#004499" /><rect x="116" y="126" width="8" height="8" fill="#AABEEE" /><rect x="176" y="126" width="8" height="8" fill="#0000FF" /><circle cx="150" cy="170" r="32" fill="#BBDDDD"/><path d="M 143 155 A 7 7 0 0 0 157 155 L 150 155 Z" fill="#FF4488"/><rect x="141" y="171" width="18" height="18" fill="#FFFF00"/><path d="M 150 60 A 70 70 0 0 1 150 200 L 150 130 Z" fill="#2222DD"/><path d="M 152 105 L 144 142" stroke="#550000" stroke-width="3"/><path d="M 162 108 L 154 147" stroke="#550000" stroke-width="3"/><path d="M 172 112 L 164 150" stroke="#550000" stroke-width="3"/><rect x="115" y="260" width="20" height="10" rx="10" fill="#999999" /><rect x="165" y="260" width="20" height="10" rx="10" fill="#FF4488" /></svg>