<svg xmlns="http://www.w3.org/2000/svg" viewBox="0 0 300 300"><rect width="300" height="300" fill="#246364"/><rect x="90" y="180" width="120" height="90" rx="35" fill="#cebfca"/><rect x="81" y="55" width="28" height="40" fill="#f880c0" /><rect x="191" y="55" width="28" height="40" fill="#6bc463" /><rect x="89" y="70" width="12" height="20" fill="#336741" /><rect x="199" y="70" width="12" height="20" fill="#4d4588" /><rect x="108" y="194" width="84" height="63" rx="25" fill="#064748"/><circle cx="150" cy="130" r="70" fill="#d30dfb"/><rect x="128" y="44" width="44" height="22" rx="22" fill="#6bde32" /><circle cx="120" cy="130" r="18" fill="#e79145"/><circle cx="180" cy="130" r="18" fill="#af5dff"/><ellipse cx="120" cy="130" rx="8" ry="4" fill="#bed5a5" /><ellipse cx="180" cy="130" rx="8" ry="4" fill="#3db431" /><circle cx="150" cy="170" r="32" fill="#ebd917"/><rect x="143" y="148" width="14" height="14" fill="#0afe47"/><rect x="132" y="171" width="36" height="18" rx="18" fill="#fe02e1" /><rect x="96" y="106" width="48" height="48" rx="10" ry="10" fill="#000"/><path d="M 150 60 A 70 70 0 0 1 150 200 L 150 130 Z" fill="#d2b339"/><path d="M 152 105 L 144 142" stroke="#550000" stroke-width="3"/><path d="M 162 108 L 154 147" stroke="#550000" stroke-width="3"/><path d="M 172 112 L 164 150" stroke="#550000" stroke-width="3"/><rect x="95" y="253" width="20" height="10" rx="10" fill="#9cbf16" /><rect x="185" y="253" width="20" height="10" rx="10" fill="#fb6702" /></svg>