<svg xmlns="http://www.w3.org/2000/svg" viewBox="0 0 300 300"><rect width="100%" height="100%" fill="#CCCCCC"/><rect x="90" y="180" width="120" height="90" rx="35" fill="#779999"/><rect x="47" y="101" width="56" height="28" rx="28" fill="#FF4488" /><rect x="197" y="101" width="56" height="28" rx="28" fill="#FF8800" /><rect x="69" y="110" width="12" height="20" fill="#665533" /><rect x="219" y="110" width="12" height="20" fill="#0000FF" /><rect x="108" y="194" width="84" height="63" rx="25" fill="#111100"/><circle cx="150" cy="130" r="70" fill="#FF8899"/><rect x="128" y="40" width="45" height="30" fill="#AABEEE" /><rect x="102" y="112" width="36" height="36" fill="#FFEEFF"/><rect x="162" y="112" width="36" height="36" fill="#88AA88"/><rect x="116" y="126" width="8" height="8" fill="#FFCC55" /><rect x="176" y="126" width="8" height="8" fill="#FF4488" /><circle cx="150" cy="170" r="32" fill="#BBDDDD"/><path d="M 143 155 A 7 7 0 0 1 157 155 L 150 155 Z" fill="#AABEEE"/><path d="M 132 180 A 18 18 0 0 1 168 180 L 150 180 Z" fill="#777777"/><path d="M 150 60 A 70 70 0 0 1 150 200 L 150 130 Z" fill="#BBCCCC"/><path d="M 152 105 L 144 142" stroke="#550000" stroke-width="3"/><path d="M 162 108 L 154 147" stroke="#550000" stroke-width="3"/><path d="M 172 112 L 164 150" stroke="#550000" stroke-width="3"/><polygon points="125,255 115,275 135,275" fill="#665533" /><polygon points="175,255 165,275 185,275" fill="#222222" /></svg>