<svg xmlns="http://www.w3.org/2000/svg" viewBox="0 0 300 300"><rect width="100%" height="100%" fill="#DDDAAA"/><rect x="90" y="180" width="120" height="90" rx="35" fill="#771111"/><path d="M 47 115 A 28 28 0 0 0 103 115 L 75 115 Z" fill="#779999"/><path d="M 197 115 A 28 28 0 0 0 253 115 L 225 115 Z" fill="#BBEE77"/><rect x="69" y="110" width="12" height="20" fill="#771111" /><rect x="219" y="110" width="12" height="20" fill="#888888" /><circle cx="150" cy="130" r="70" fill="#999999"/><rect x="105" y="10" width="90" height="90" fill="#FFFFFF"/><polygon points="120,112 102,148 138,148" fill="#00AA00" /><polygon points="180,112 162,148 198,148" fill="#77FF99" /><rect x="112" y="122" width="16" height="16" fill="#AA7711"/><rect x="172" y="122" width="16" height="16" fill="#665533"/><circle cx="150" cy="170" r="32" fill="#BBEE77"/><path d="M 143 155 A 7 7 0 0 1 157 155 L 150 155 Z" fill="#7700DD"/><polygon points="150,171 141,189 159,189" fill="#334444" /><path d="M 150 60 A 70 70 0 0 1 150 200 L 150 130 Z" fill="#BBEE77"/><path d="M 152 105 L 144 142" stroke="#550000" stroke-width="3"/><path d="M 162 108 L 154 147" stroke="#550000" stroke-width="3"/><path d="M 172 112 L 164 150" stroke="#550000" stroke-width="3"/><rect x="96" y="106" width="48" height="48" rx="10" ry="10" fill="#111111"/><polygon points="125,255 115,275 135,275" fill="#111100" /><polygon points="175,255 165,275 185,275" fill="#334444" /></svg>