<svg xmlns="http://www.w3.org/2000/svg" viewBox="0 0 300 300"><rect width="300" height="300" fill="#763b4f"/><rect x="90" y="180" width="120" height="90" rx="35" fill="#9fb56f"/><path d="M 67 75 A 28 28 0 0 1 123 75 L 95 75 Z" fill="#4277c9"/><path d="M 177 75 A 28 28 0 0 1 233 75 L 205 75 Z" fill="#928ee8"/><rect x="83" y="74" width="24" height="12" rx="12" fill="#1f4ffb" /><rect x="193" y="74" width="24" height="12" rx="12" fill="#92579e" /><rect x="108" y="194" width="84" height="63" rx="25" fill="#1f7fff"/><circle cx="150" cy="130" r="70" fill="#09c208"/><rect x="139" y="48" width="22" height="15" fill="#a074b3" /><rect x="102" y="121" width="36" height="18" rx="18" fill="#85fe1c" /><rect x="162" y="121" width="36" height="18" rx="18" fill="#e6a102" /><rect x="112" y="122" width="16" height="16" fill="#e90f09"/><rect x="172" y="122" width="16" height="16" fill="#05ebb8"/><circle cx="150" cy="170" r="32" fill="#635c01"/><path d="M 143 155 A 7 7 0 0 0 157 155 L 150 155 Z" fill="#7d542b"/><rect x="141" y="171" width="18" height="18" fill="#688b82"/><rect x="96" y="106" width="48" height="48" rx="10" ry="10" fill="#000"/><path d="M 150 60 A 70 70 0 0 1 150 200 L 150 130 Z" fill="#8faaac"/><path d="M 152 105 L 144 142" stroke="#550000" stroke-width="3"/><path d="M 162 108 L 154 147" stroke="#550000" stroke-width="3"/><path d="M 172 112 L 164 150" stroke="#550000" stroke-width="3"/><rect x="95" y="253" width="20" height="10" rx="10" fill="#795a71" /><rect x="185" y="253" width="20" height="10" rx="10" fill="#7ff8f2" /></svg>