<svg xmlns="http://www.w3.org/2000/svg" viewBox="0 0 300 300"><rect width="100%" height="100%" fill="#EE9922"/><rect x="90" y="180" width="120" height="90" rx="35" fill="#334444"/><circle cx="75" cy="115" r="28" fill="#DD00DD"/><circle cx="225" cy="115" r="28" fill="#004499"/><polygon points="75,108 63,132 87,132" fill="#444444" /><polygon points="225,108 213,132 237,132" fill="#3322FF" /><rect x="108" y="194" width="84" height="63" rx="25" fill="#000000"/><circle cx="150" cy="130" r="70" fill="#DD0044"/><ellipse cx="150" cy="55" rx="45" ry="22" fill="#771111" /><rect x="111" y="121" width="18" height="18" fill="#BBEE77" /><rect x="171" y="121" width="18" height="18" fill="#00FF00" /><path d="M 112 130 A 8 8 0 0 0 128 130 L 120 130 Z" fill="#771111"/><path d="M 172 130 A 8 8 0 0 0 188 130 L 180 130 Z" fill="#777777"/><circle cx="150" cy="170" r="32" fill="#CCEEFF"/><circle cx="150" cy="155" r="7" fill="#00FF00"/><ellipse cx="150" cy="180" rx="18" ry="9" fill="#004499" /><path d="M 150 60 A 70 70 0 0 1 150 200 L 150 130 Z" fill="#FF8800"/><path d="M 152 105 L 144 142" stroke="#550000" stroke-width="3"/><path d="M 162 108 L 154 147" stroke="#550000" stroke-width="3"/><path d="M 172 112 L 164 150" stroke="#550000" stroke-width="3"/><rect x="96" y="106" width="48" height="48" rx="10" ry="10" fill="#111111"/><circle cx="125" cy="265" r="10" fill="#FF8899"/><circle cx="175" cy="265" r="10" fill="#0000FF"/></svg>