<svg xmlns="http://www.w3.org/2000/svg" viewBox="0 0 300 300"><rect width="100%" height="100%" fill="#666633"/><rect x="90" y="180" width="120" height="90" rx="35" fill="#771111"/><polygon points="75,87 47,143 103,143" fill="#FFDD11" /><polygon points="225,87 197,143 253,143" fill="#336677" /><ellipse cx="75" cy="120" rx="12" ry="6" fill="#779999" /><ellipse cx="225" cy="120" rx="12" ry="6" fill="#77FF99" /><rect x="108" y="194" width="84" height="63" rx="25" fill="#111100"/><circle cx="150" cy="130" r="70" fill="#FF00FF"/><polygon points="150,10 105,100 195,100" fill="#999999" /><circle cx="120" cy="130" r="18" fill="#FF8800"/><circle cx="180" cy="130" r="18" fill="#DD00DD"/><rect x="112" y="122" width="16" height="16" fill="#77FF99"/><rect x="172" y="122" width="16" height="16" fill="#FFFFFF"/><circle cx="150" cy="170" r="32" fill="#0000FF"/><ellipse cx="150" cy="155" rx="7" ry="3" fill="#0000FF" /><path d="M 132 180 A 18 18 0 0 1 168 180 L 150 180 Z" fill="#771111"/><path d="M 150 60 A 70 70 0 0 1 150 200 L 150 130 Z" fill="#3322FF"/><path d="M 152 105 L 144 142" stroke="#550000" stroke-width="3"/><path d="M 162 108 L 154 147" stroke="#550000" stroke-width="3"/><path d="M 172 112 L 164 150" stroke="#550000" stroke-width="3"/><rect x="96" y="106" width="48" height="48" rx="10" ry="10" fill="#111111"/><circle cx="125" cy="265" r="10" fill="#7700DD"/><circle cx="175" cy="265" r="10" fill="#FF8899"/></svg>