<svg xmlns="http://www.w3.org/2000/svg" viewBox="0 0 300 300"><rect width="100%" height="100%" fill="#99DDEE"/><rect x="90" y="180" width="120" height="90" rx="35" fill="#FFFFFF"/><path d="M 47 115 A 28 28 0 0 0 103 115 L 75 115 Z" fill="#555555"/><path d="M 197 115 A 28 28 0 0 0 253 115 L 225 115 Z" fill="#111100"/><rect x="63" y="114" width="24" height="12" rx="12" fill="#FF0000" /><rect x="213" y="114" width="24" height="12" rx="12" fill="#FF00FF" /><circle cx="150" cy="130" r="70" fill="#FFFFFF"/><polygon points="150,10 105,100 195,100" fill="#88AA88" /><path d="M 102 130 A 18 18 0 0 0 138 130 L 120 130 Z" fill="#FFDD11"/><path d="M 162 130 A 18 18 0 0 0 198 130 L 180 130 Z" fill="#9900FF"/><rect x="112" y="122" width="16" height="16" fill="#FF0000"/><rect x="172" y="122" width="16" height="16" fill="#004499"/><circle cx="150" cy="170" r="32" fill="#BBCCCC"/><rect x="143" y="148" width="14" height="14" fill="#BBEE77"/><rect x="132" y="171" width="36" height="18" rx="18" fill="#AA7711" /><path d="M 150 60 A 70 70 0 0 1 150 200 L 150 130 Z" fill="#FFEE77"/><path d="M 152 105 L 144 142" stroke="#550000" stroke-width="3"/><path d="M 162 108 L 154 147" stroke="#550000" stroke-width="3"/><path d="M 172 112 L 164 150" stroke="#550000" stroke-width="3"/><rect x="115" y="255" width="20" height="20" fill="#88AA88"/><rect x="165" y="255" width="20" height="20" fill="#557744"/></svg>