<svg xmlns="http://www.w3.org/2000/svg" viewBox="0 0 300 300"><rect width="300" height="300" fill="#cd5a69"/><rect x="90" y="180" width="120" height="90" rx="35" fill="#869b6c"/><polygon points="95,47 67,103 123,103" fill="#9478d5" /><polygon points="205,47 177,103 233,103" fill="#7906a1" /><rect x="83" y="74" width="24" height="12" rx="12" fill="#11026f" /><rect x="193" y="74" width="24" height="12" rx="12" fill="#a8808c" /><rect x="108" y="194" width="84" height="63" rx="25" fill="#ba9e38"/><circle cx="150" cy="130" r="70" fill="#309419"/><rect x="139" y="48" width="22" height="15" fill="#06eb8d" /><ellipse cx="120" cy="130" rx="18" ry="9" fill="#179e1c" /><ellipse cx="180" cy="130" rx="18" ry="9" fill="#bd4410" /><polygon points="120,122 112,138 128,138" fill="#3666f2" /><polygon points="180,122 172,138 188,138" fill="#008e6e" /><circle cx="150" cy="170" r="32" fill="#0e98dd"/><circle cx="150" cy="155" r="7" fill="#dfb62c"/><path d="M 132 180 A 18 18 0 0 0 168 180 L 150 180 Z" fill="#00cd9e"/><rect x="96" y="106" width="48" height="48" rx="10" ry="10" fill="#000"/><path d="M 150 60 A 70 70 0 0 1 150 200 L 150 130 Z" fill="#4a1f34"/><path d="M 152 105 L 144 142" stroke="#550000" stroke-width="3"/><path d="M 162 108 L 154 147" stroke="#550000" stroke-width="3"/><path d="M 172 112 L 164 150" stroke="#550000" stroke-width="3"/><ellipse cx="105" cy="258" rx="10" ry="5" fill="#962cde" /><ellipse cx="195" cy="258" rx="10" ry="5" fill="#b66f9f" /></svg>